<svg aria-hidden="true" style="position: absolute; width: 0; height: 0; overflow: hidden;" version="1.1" xmlns="http://www.w3.org/2000/svg" xmlns:xlink="http://www.w3.org/1999/xlink">
<defs>
<symbol id="icon-advantages-icon-1" viewBox="0 0 19 20">
<path fill="#2e2f42" style="fill: var(--color1, #2e2f42)" d="M18.608 13.811l-5.277-5.316 0.586-2.884c0.151 0.059 0.312 0.090 0.474 0.091h0.004c0.005 0 0.010 0 0.016 0 0.745 0 1.349-0.604 1.349-1.349s-0.604-1.349-1.349-1.349c-0.745 0-1.349 0.604-1.349 1.349 0 0.162 0.029 0.318 0.081 0.462l-0.003-0.009-3.1 0.378-5.057-5.083c-0.060-0.061-0.143-0.099-0.235-0.1h-0c-0.088 0-0.171 0.035-0.233 0.097l-0.945 0.94c-0.060 0.060-0.098 0.144-0.098 0.236s0.037 0.175 0.098 0.236v0l0.509 0.516c-0.714 1.289-1.135 2.826-1.135 4.462 0 2.566 1.035 4.891 2.71 6.579l-0.001-0.001c0.026 0.025 0.057 0.046 0.091 0.061-0.020 0.102-0.032 0.221-0.032 0.341v3.868h-4c-0.92 0.001-1.666 0.746-1.667 1.666v0.667c0 0.184 0.15 0.333 0.334 0.333h15.333c0.184 0 0.333-0.149 0.333-0.333v-0.667c-0.001-0.92-0.747-1.665-1.667-1.667h-4v-1.714c0.627 0.131 1.265 0.198 1.905 0.2 1.612-0.002 3.128-0.414 4.448-1.139l-0.048 0.024 0.512 0.514c0.062 0.063 0.147 0.099 0.235 0.1 0.087-0.001 0.171-0.035 0.233-0.097l0.945-0.94c0.060-0.060 0.098-0.144 0.098-0.236s-0.037-0.175-0.098-0.236v0zM13.925 3.896c0.12-0.12 0.287-0.194 0.47-0.194 0.368 0 0.667 0.298 0.667 0.667s-0.298 0.667-0.667 0.667c-0 0-0 0-0 0h-0.002c-0.367-0.002-0.663-0.3-0.663-0.667 0-0.185 0.075-0.352 0.197-0.473l0-0h-0.001zM13.14 6.086l-0.374 1.841-0.735-0.739 1.109-1.102zM12.762 5.522l-1.2 1.193-0.928-0.933 2.128-0.259zM14.378 18c0.552 0 1 0.448 1 1v0 0.333h-14.667v-0.333c0-0.552 0.448-1 1-1h12.667zM9.711 16.667v0.667h-3.333v-0.667h3.333zM6.378 16v-2.533c0-0.808 0.748-1.467 1.667-1.467s1.667 0.658 1.667 1.467v2.533h-3.333zM10.377 14.94v-1.473c0-1.176-1.047-2.133-2.333-2.133-0.011-0-0.024-0-0.037-0-0.845 0-1.588 0.442-2.008 1.107l-0.006 0.010c-1.475-1.551-2.382-3.654-2.382-5.968 0-1.446 0.354-2.81 0.981-4.009l-0.023 0.048 11.626 11.693c-1.139 0.592-2.487 0.939-3.916 0.939-0.674 0-1.33-0.077-1.96-0.223l0.058 0.011zM17.433 14.513l-13.161-13.238 0.472-0.47 4.959 4.987c0.002 0 0.003 0.004 0.006 0.006l8.197 8.244-0.473 0.47z"></path>
<path fill="#4d5ae5" style="fill: var(--color2, #4d5ae5)" d="M8.047 12.667h-0.003c-0 0-0.001 0-0.002 0-0.552 0-1 0.448-1 1s0.447 0.999 0.998 1h0.003c0 0 0.001 0 0.002 0 0.552 0 1-0.448 1-1s-0.447-0.999-0.998-1h-0zM8.281 13.903c-0.060 0.060-0.143 0.097-0.235 0.097-0.184 0-0.333-0.149-0.333-0.333 0-0 0-0.001 0-0.001v0c0.001-0.183 0.149-0.33 0.331-0.332h0c0.183 0.001 0.332 0.15 0.332 0.333 0 0.092-0.038 0.176-0.098 0.236l-0 0h0.003z"></path>
</symbol>
<symbol id="icon-advantages-icon-2" viewBox="0 0 20 20">
<path fill="#2e2f42" style="fill: var(--color1, #2e2f42)" d="M19.56 9.563c-0.001-5.282-4.284-9.564-9.568-9.563s-9.564 4.284-9.563 9.567c0.001 4.243 2.764 7.839 6.588 9.091l0.068 0.019c0.038 0.012 0.077 0.018 0.117 0.018 0.076 0 0.149-0.020 0.214-0.058 0.084-0.050 0.148-0.129 0.177-0.223l2.416-7.656c0.658-0.002 1.191-0.537 1.191-1.196 0-0.66-0.535-1.196-1.196-1.196-0.189 0-0.369 0.044-0.528 0.123l0.007-0.003-3.191-3.192c-0.072-0.072-0.172-0.117-0.282-0.117-0.22 0-0.399 0.178-0.399 0.399 0 0.11 0.045 0.21 0.117 0.282v0l3.19 3.193c-0.075 0.151-0.12 0.328-0.12 0.516 0 0.376 0.177 0.711 0.452 0.925l0.003 0.002-2.302 7.296c-4.549-1.676-6.878-6.721-5.202-11.27s6.722-6.878 11.27-5.202c4.548 1.676 6.877 6.722 5.202 11.27-0.841 2.238-2.502 4.004-4.609 4.961l-0.055 0.022-0.249-1.172c-0.040-0.182-0.199-0.316-0.39-0.316-0.102 0-0.195 0.038-0.266 0.101l0-0-2.398 2.141c-0.082 0.073-0.134 0.18-0.134 0.298 0 0.177 0.116 0.327 0.275 0.379l0.003 0.001 3.062 0.977c0.037 0.012 0.079 0.019 0.122 0.019 0.22 0 0.398-0.178 0.398-0.398 0-0.029-0.003-0.058-0.009-0.086l0 0.003-0.244-1.149c3.455-1.484 5.83-4.857 5.83-8.785 0-0.007 0-0.014-0-0.021v0.001zM9.995 9.165c0.22 0 0.399 0.179 0.399 0.399s-0.179 0.399-0.399 0.399v0c-0.22 0-0.399-0.179-0.399-0.399s0.179-0.399 0.399-0.399v0zM11.308 18.455l1.365-1.217 0.377 1.775-1.742-0.558z"></path>
<path fill="#4d5ae5" style="fill: var(--color2, #4d5ae5)" d="M9.597 1.991v0.797c0 0.22 0.178 0.398 0.398 0.398s0.398-0.178 0.398-0.398v-0.797c-0.009-0.213-0.184-0.383-0.398-0.383s-0.39 0.17-0.398 0.382l-0 0.001zM2.422 9.165c-0.22 0-0.398 0.178-0.398 0.398s0.178 0.398 0.398 0.398h0.797c0.22 0 0.398-0.178 0.398-0.398s-0.178-0.398-0.398-0.398h-0.797zM17.567 9.962c0.22 0 0.398-0.178 0.398-0.398s-0.178-0.398-0.398-0.398h-0.797c-0.213 0.009-0.383 0.184-0.383 0.398s0.17 0.39 0.382 0.398l0.001 0h0.797z"></path>
</symbol>
<symbol id="icon-advantages-icon-3" viewBox="0 0 20 20">
<path fill="#4d5ae5" style="fill: var(--color2, #4d5ae5)" d="M9.328 9.353h0.666v2.998h-0.666v-2.998zM11.994 10.686h0.666v1.666h-0.666v-1.666zM6.663 11.685h0.666v0.666h-0.666v-0.666zM4.664 11.352h0.667v0.999h-0.667v-0.999z"></path>
<path fill="#2e2f42" style="fill: var(--color1, #2e2f42)" d="M0.999 17.682h15.992c0 0 0 0 0 0 0.552 0 0.999-0.447 0.999-0.999v0-1.333c0-0.552-0.447-0.999-0.999-0.999-0 0-0 0-0 0h-0.333v-8.308l1.893-1.793c0.13 0.065 0.283 0.104 0.444 0.104 0.555 0 1.005-0.45 1.005-1.005s-0.45-1.005-1.005-1.005c-0.555 0-1.005 0.45-1.005 1.005 0 0.154 0.035 0.3 0.097 0.431l-0.003-0.006-1.426 1.352v-0.769c0-0.552-0.447-0.999-0.999-0.999v0h-13.326c-0 0-0 0-0 0-0.552 0-0.999 0.447-0.999 0.999 0 0 0 0 0 0v-0 9.994h-0.333c-0.552 0-0.999 0.447-0.999 0.999 0 0 0 0 0 0v-0 1.333c0 0.552 0.447 0.999 0.999 0.999v0zM18.99 3.023c0.184 0 0.333 0.149 0.333 0.333s-0.149 0.333-0.333 0.333v0c-0.184 0-0.333-0.149-0.333-0.333s0.149-0.333 0.333-0.333v0zM1.999 4.356c0-0.184 0.149-0.333 0.333-0.333h13.326c0.184 0 0.333 0.149 0.333 0.333v1.399l-0.666 0.633v-1.366c0-0.184-0.149-0.333-0.333-0.333h-11.994c-0.184 0-0.333 0.149-0.333 0.333v8.329c0 0.184 0.149 0.333 0.333 0.333h11.994c0.184 0 0.333-0.149 0.333-0.333v-6.046l0.666-0.631v7.677h-13.993v-9.994zM4.998 8.687c-0.001 0-0.002 0-0.003 0-0.552 0-0.999 0.447-0.999 0.999s0.447 0.999 0.999 0.999c0.27 0 0.515-0.107 0.695-0.281l-0 0 1.158 0.581c0.134 0.067 0.298 0.036 0.398-0.077l2.462-2.77 2.42 1.813c0.13 0.097 0.311 0.087 0.429-0.025l2.103-1.992v5.082h-11.327v-7.663h11.327v1.662l-2.357 2.233-2.441-1.83c-0.055-0.041-0.124-0.066-0.2-0.066-0.099 0-0.188 0.043-0.249 0.111l-0 0-2.496 2.808-0.933-0.467c0.007-0.040 0.011-0.080 0.013-0.121-0-0.552-0.447-0.999-0.999-0.999h-0zM5.331 9.686c0 0.184-0.149 0.333-0.333 0.333s-0.333-0.149-0.333-0.333v0c0-0.184 0.149-0.333 0.333-0.333s0.333 0.149 0.333 0.333v0zM7.329 15.017h3.332v0.333c0 0.184-0.149 0.333-0.333 0.333h-2.665c-0.184 0-0.333-0.149-0.333-0.333v0-0.333zM0.666 15.35c0-0.184 0.149-0.333 0.333-0.333h5.664v0.333c0 0 0 0 0 0 0 0.552 0.447 0.999 0.999 0.999h2.666c0.552 0 0.999-0.447 0.999-0.999 0-0 0-0 0-0v0-0.333h5.663c0.184 0 0.333 0.149 0.333 0.333v1.333c0 0.184-0.149 0.333-0.333 0.333h-15.991c-0.184 0-0.333-0.149-0.333-0.333v0-1.333z"></path>
</symbol>
<symbol id="icon-advantages-icon-4" viewBox="0 0 20 20">
<path fill="#4d5ae5" style="fill: var(--color2, #4d5ae5)" d="M19.984 2.828c-0.040-0.119-0.142-0.207-0.267-0.226l-0.002-0-1.194-0.174-0.534-1.082c-0.112-0.228-0.485-0.228-0.598 0l-0.534 1.082-1.194 0.174c-0.162 0.024-0.285 0.163-0.285 0.33 0 0.093 0.038 0.178 0.1 0.238l0.864 0.842-0.204 1.189c-0.021 0.125 0.030 0.251 0.133 0.326 0.104 0.075 0.239 0.085 0.351 0.025l1.068-0.562 1.068 0.562c0.045 0.024 0.098 0.038 0.155 0.038 0.184 0 0.334-0.149 0.334-0.334 0-0.020-0.002-0.039-0.005-0.057l0 0.002-0.204-1.189 0.864-0.842c0.062-0.061 0.101-0.145 0.101-0.239 0-0.037-0.006-0.072-0.017-0.105l0.001 0.002zM18.444 3.657c-0.078 0.076-0.114 0.187-0.096 0.295l0.119 0.696-0.625-0.328c-0.045-0.024-0.098-0.038-0.155-0.038s-0.11 0.014-0.157 0.039l0.002-0.001-0.625 0.328 0.119-0.696c0.003-0.017 0.005-0.036 0.005-0.056 0-0.093-0.038-0.178-0.1-0.239l-0.506-0.493 0.699-0.102c0.109-0.016 0.202-0.084 0.251-0.183l0.313-0.633 0.313 0.633c0.049 0.098 0.143 0.167 0.251 0.183l0.699 0.102-0.506 0.493zM16.333 12.826h-0.667v0.667h0.667v-0.667zM16.333 14.16h-0.667v0.667h0.667v-0.667z"></path>
<path fill="#4d5ae5" style="fill: var(--color2, #4d5ae5)" d="M17 13.493h-0.667v0.667h0.667v-0.667zM15.667 13.493h-0.667v0.667h0.667v-0.667zM14 16.493h-0.667v0.667h0.667v-0.667zM14 17.827h-0.667v0.667h0.667v-0.667zM14.667 17.16h-0.667v0.667h0.667v-0.667z"></path>
<path fill="#4d5ae5" style="fill: var(--color2, #4d5ae5)" d="M13.333 17.16h-0.667v0.667h0.667v-0.667zM10 15.16h-0.667v0.667h0.667v-0.667zM10 16.493h-0.667v0.667h0.667v-0.667zM10.667 15.827h-0.667v0.667h0.667v-0.667zM9.333 15.827h-0.667v0.667h0.667v-0.667zM3.667 3.826h-0.667v0.667h0.667v-0.667zM3.667 5.159h-0.667v0.667h0.667v-0.667zM4.333 4.493h-0.667v0.667h0.667v-0.667zM3 4.493h-0.667v0.667h0.667v-0.667z"></path>
<path fill="#2e2f42" style="fill: var(--color1, #2e2f42)" d="M15.447 8.85c-0.175-0.235-0.437-0.398-0.737-0.44l-0.006-0.001c-0.048-0.007-0.103-0.011-0.159-0.011-0.257 0-0.493 0.087-0.681 0.234l0.002-0.002-0.782 0.6-1.186 0.886-0.848-0.338c1.513-0.679 2.571-2.192 2.571-3.95 0-2.389-1.952-4.333-4.351-4.333s-4.351 1.944-4.351 4.333c0 0.866 0.259 1.671 0.7 2.349l-1.731-0.015c-0.005 0-0.009 0.003-0.015 0.003-0.033 0.001-0.065 0.008-0.097 0.019-0.008 0.003-0.016 0.005-0.024 0.008-0.004 0.002-0.008 0.002-0.012 0.004l-2.021 0.998-1.183 0.569c-0.015 0.007-0.028 0.014-0.040 0.022l0.001-0.001c-0.301 0.202-0.496 0.541-0.496 0.926 0 0.185 0.045 0.36 0.126 0.514l-0.003-0.006c0.138 0.268 0.372 0.466 0.66 0.556 0.1 0.033 0.216 0.052 0.336 0.052 0.193 0 0.374-0.049 0.532-0.135l-0.006 0.003 0.867-0.461 1.415-0.731 0.848-0.005-3.401 3.384c0 0.001-0.001 0.001-0.001 0.001l-0.837 0.833c-0.189 0.187-0.306 0.446-0.306 0.733 0 0.001 0 0.002 0 0.003v-0c0 0.278 0.108 0.54 0.306 0.737 0.203 0.202 0.47 0.303 0.737 0.303s0.534-0.101 0.738-0.303l0.822-0.818 1.088-0.813 0.563 0.561-1.939 1.93c-0.189 0.187-0.306 0.446-0.306 0.733 0 0.001 0 0.002 0 0.003v-0c0 0.278 0.109 0.54 0.306 0.737 0.203 0.202 0.47 0.303 0.737 0.303s0.534-0.101 0.737-0.303l2.176-2.167c0-0.001 0-0.001 0.001-0.001l0.631-0.625-0.002-0.002c0.004-0.004 0.010-0.005 0.014-0.010l3.229-3.536 2.169 0.308c0.013 0.002 0.027 0.003 0.042 0.003 0.044 0 0.086-0.009 0.124-0.024l-0.002 0.001c0.011-0.004 0.021-0.009 0.031-0.015 0.012-0.006 0.024-0.009 0.036-0.017l2.008-1.333c0.008-0.005 0.011-0.013 0.018-0.018s0.018-0.009 0.025-0.016l0.795-0.745c0.217-0.203 0.352-0.492 0.352-0.812 0-0.25-0.083-0.481-0.222-0.667l0.002 0.003zM1.331 11.106c-0.108 0.058-0.231 0.070-0.349 0.033-0.184-0.058-0.315-0.227-0.315-0.427 0-0.147 0.071-0.278 0.181-0.36l0.001-0.001 0.821-0.395 0.197 0.578 0.083 0.243-0.62 0.33zM3.517 9.964l-0.968 0.5-0.159-0.467-0.115-0.335 1.267-0.625-0.025 0.927zM12.954 5.826c0 0.574-0.137 1.116-0.374 1.6l-2.613-1.187c-0.027-0.36-0.214-0.67-0.489-0.865l-0.004-0.002 0.915-3.038c1.486 0.472 2.565 1.858 2.565 3.492zM5.586 5.826c0-2.022 1.653-3.667 3.684-3.667 0.158 0 0.313 0.013 0.466 0.033l-0.895 2.971c-0.012 0-0.023-0.003-0.036-0.003-0 0-0 0-0 0-0.645 0-1.168 0.522-1.17 1.166v0c0.002 0.645 0.525 1.167 1.17 1.167 0 0 0 0 0 0h-0c0.434 0 0.809-0.239 1.011-0.59l2.414 1.097c-0.672 0.904-1.747 1.494-2.96 1.494-2.031 0-3.684-1.645-3.684-3.667zM9.309 6.326c0 0.276-0.226 0.5-0.504 0.5-0 0-0.001 0-0.001 0-0.277 0-0.501-0.224-0.502-0.5v-0c0-0.276 0.226-0.5 0.504-0.5s0.504 0.224 0.504 0.5zM1.54 15.716c-0.069 0.068-0.163 0.11-0.267 0.11s-0.198-0.042-0.267-0.109l0 0c-0.068-0.067-0.11-0.161-0.11-0.264s0.042-0.197 0.11-0.264l0-0 0.601-0.599 0.532 0.53-0.599 0.597zM3.549 18.050c-0.069 0.068-0.163 0.11-0.268 0.11s-0.198-0.042-0.267-0.11l0 0c-0.068-0.067-0.11-0.161-0.11-0.264s0.042-0.197 0.11-0.264l0-0 0.602-0.599 0.532 0.53-0.6 0.597zM5.725 15.882l-0.001 0.001-1.103 1.1-0.532-0.53 1.102-1.098s0.001 0 0.001-0.001c0.025-0.025 0.041-0.055 0.056-0.084 0.004-0.009 0.013-0.016 0.016-0.025 0.010-0.026 0.012-0.053 0.016-0.081 0.002-0.015 0.009-0.030 0.009-0.045 0-0.022-0.008-0.044-0.013-0.066-0.004-0.020-0.004-0.041-0.012-0.060-0.013-0.031-0.034-0.059-0.057-0.086-0.006-0.008-0.008-0.017-0.016-0.024h-0l-0.001-0.001-1.004-1c-0.011-0.011-0.024-0.015-0.036-0.024-0.016-0.013-0.034-0.025-0.053-0.035l-0.002-0.001c-0.017-0.008-0.036-0.015-0.056-0.020l-0.002-0c-0.019-0.006-0.041-0.010-0.063-0.012l-0.001-0c-0.004-0-0.008-0-0.013-0-0.016 0-0.033 0.001-0.048 0.004l0.002-0c-0.024 0.002-0.046 0.007-0.068 0.013l0.002-0.001c-0.023 0.008-0.042 0.018-0.060 0.029l0.001-0.001c-0.012 0.007-0.027 0.009-0.038 0.018l-1.108 0.828-0.563-0.561 1.499-1.492 2.725 2.681-0.579 0.574zM9.987 11.496c-0.009-0.001-0.019 0.002-0.028 0.002-0.005-0-0.011-0-0.016-0-0.020 0-0.039 0.002-0.058 0.005l0.002-0c-0.044 0.007-0.082 0.022-0.117 0.043l0.001-0.001c-0.019 0.011-0.036 0.023-0.052 0.038-0.008 0.007-0.018 0.010-0.025 0.018l-2.937 3.216-2.705-2.661 1.771-1.761c0.060-0.060 0.097-0.144 0.097-0.236 0-0.184-0.149-0.334-0.334-0.334-0 0-0.001 0-0.001 0h0l-1.387 0.008 0.017-1.005 1.94 0.017c0.79 0.81 1.892 1.313 3.111 1.313 0.001 0 0.001 0 0.002 0h-0c0.273 0 0.54-0.028 0.8-0.077 0.025 0.020 0.050 0.040 0.081 0.053l1.506 0.6 0.095 0.474 0.112 0.553-1.877-0.267zM12.513 11.608l-0.196-0.974 0.904-0.675 0.592 0.785-1.3 0.863zM14.859 9.838l-0.524 0.491-0.582-0.773 0.52-0.398c0.097-0.075 0.219-0.105 0.339-0.089 0.121 0.017 0.228 0.080 0.3 0.178 0.136 0.182 0.113 0.437-0.053 0.592z"></path>
<path fill="#2e2f42" style="fill: var(--color1, #2e2f42)" d="M8.501 11.59l-1.339-1.333c-0.060-0.060-0.143-0.097-0.235-0.097s-0.175 0.037-0.235 0.097l-1.339 1.333c-0.060 0.061-0.098 0.144-0.098 0.236s0.037 0.176 0.098 0.236l-0-0 1.339 1.333c0.060 0.060 0.143 0.097 0.235 0.097s0.175-0.037 0.235-0.097l1.339-1.333c0.061-0.060 0.098-0.144 0.098-0.236s-0.038-0.176-0.098-0.236l-0-0zM6.927 12.689l-0.867-0.863 0.867-0.863 0.867 0.863-0.867 0.863zM10.728 3.169l-0.161 0.647c0.044 0.011 1.086 0.282 1.086 1.343h0.667c0-1.261-1.041-1.853-1.592-1.991zM12.319 5.826h-0.667v0.667h0.667v-0.667z"></path>
</symbol>
</defs>
</svg>
